<svg id="Layer_1" data-name="Layer 1" xmlns="http://www.w3.org/2000/svg" xmlns:xlink="http://www.w3.org/1999/xlink" viewBox="0 0 1446.51 1014.73"><defs><style>.cls-1,.cls-4{fill:none;}.cls-2,.cls-28{fill:#fff;}.cls-3{clip-path:url(#clip-path);}.cls-4{stroke:#cdd0d5;}.cls-28,.cls-4{stroke-miterlimit:10;stroke-width:3px;}.cls-5{fill:#dfe1e5;}.cls-6{fill:#ea7a72;}.cls-7{fill:#cdd0d5;}.cls-8{fill:#eff0f2;}.cls-9{fill:#ef9b95;}.cls-10{fill:#df382b;}.cls-11{fill:#b7251d;}.cls-12{fill:#e4594e;}.cls-13{fill:#73cb8a;}.cls-14{fill:#92dda6;}.cls-15{fill:#23893c;}.cls-16{fill:#53ba6f;}.cls-17{fill:#34a853;}.cls-18{fill:#2c66bf;}.cls-19{fill:#4285f4;}.cls-20{fill:#6199f6;}.cls-21{fill:#80adf7;}.cls-22{fill:#9fc1f9;}.cls-23{fill:#fbc730;}.cls-24{fill:#fcd35c;}.cls-25{fill:#fddf87;}.cls-26{fill:#eda606;}.cls-27{fill:#fabb05;}.cls-28{stroke:#eff0f2;}.cls-29{fill:#292d33;}</style><clipPath id="clip-path"><rect class="cls-1" y="-2.54" width="1442.39" height="1017.27"/></clipPath></defs><title>Artboard 1 copy</title><rect class="cls-2" width="1442.39" height="1017.27"/><g class="cls-3"><rect class="cls-2" y="-2.54" width="1442.39" height="1017.27"/></g><g class="cls-3"><rect class="cls-2" y="-1.41" width="1442.39" height="1017.27"/><ellipse class="cls-4" cx="328.61" cy="513.5" rx="203.42" ry="203.09"/><ellipse class="cls-4" cx="1112.61" cy="511.69" rx="203.42" ry="203.09"/><path class="cls-5" d="M1405.79,573a38.51,38.51,0,0,1-38.5-38.5V514h-.08C1363.76,376.18,1251,265.52,1112.3,265.52a254.22,254.22,0,0,0-100.06,20.39C942.64,204,838.87,152.07,723,152.07c-115.49,0-219,51.61-288.55,133a254.27,254.27,0,0,0-98.08-19.56C197.7,265.52,84.89,376.18,81.44,514h-.08v20.5A38.5,38.5,0,0,1,42.86,573h-66.8v3h66.8a41.5,41.5,0,0,0,41.5-41.5v-14A252.13,252.13,0,0,1,434.43,288.32l.66-1.56,1.07.91h0c69.06-81.14,171.93-132.6,286.82-132.6,115.38,0,218.62,51.89,287.69,133.62l1.14-1,.6,1.38a252,252,0,0,1,351.88,231.41h0v14a41.5,41.5,0,0,0,41.5,41.5h148.13v-3H1405.79Z"/><polyline class="cls-6" points="328.35 499.92 384.49 423.18 382.36 421.62 326.22 498.36"/><path class="cls-2" d="M341.61,495.38a15.79,15.79,0,1,0-11.85,18.92A15.8,15.8,0,0,0,341.61,495.38Z"/><path class="cls-6" d="M341.61,495.38l1.28-.3c-.05-.22-.1-.44-.16-.66a17.11,17.11,0,0,0-20.35-12.17l-.66.16a17.11,17.11,0,0,0-12.17,20.34c.05.23.11.45.17.67a17.11,17.11,0,0,0,20.34,12.17l.66-.17a17.1,17.1,0,0,0,12.17-20.34l-1.28.3-1.29.29A14.48,14.48,0,0,1,330,512.88l-.56.14a14.48,14.48,0,0,1-17.21-10.3c-.05-.18-.1-.37-.14-.56A14.46,14.46,0,0,1,322.41,485l.57-.14a14.46,14.46,0,0,1,17.2,10.29c.05.18.1.37.14.56Z"/><path class="cls-7" d="M330.35,333.84v.26h-.94v-.26A181.29,181.29,0,0,0,148.12,515.13h.66v.31a.65.65,0,0,0,.66.65l30-.11h0a.52.52,0,0,0,.21,0,.86.86,0,0,0,.2-.13h0a.6.6,0,0,0,.14-.21.58.58,0,0,0,.05-.26h0V514a.65.65,0,0,0-.65-.66l-28.66-.15a179.59,179.59,0,0,1,4.2-36.78l27.9,6.22h0l.06,0a.67.67,0,0,0,.72-.52l.3-1.32a.67.67,0,0,0-.08-.5.64.64,0,0,0-.41-.29l-27.84-6.48A177.58,177.58,0,0,1,168,438.57l25.72,12.27h0l.13.05a.65.65,0,0,0,.74-.36l.59-1.22a.65.65,0,0,0-.3-.88l-25.61-12.51A179.11,179.11,0,0,1,189,404.64l22.3,17.65a.68.68,0,0,0,.93-.11c.28-.36.56-.71.85-1.06a.66.66,0,0,0-.1-.93l-22.13-17.84a178.28,178.28,0,0,1,12.22-13.55,180.52,180.52,0,0,1,14-12.55l17.8,22.08a.66.66,0,0,0,.93.1l1.06-.84a.67.67,0,0,0,.1-.93l-17.6-22.25a178.73,178.73,0,0,1,31.3-19.66l12.43,25.45a.66.66,0,0,0,.74.35.84.84,0,0,0,.14-.06h0l1.22-.59a.65.65,0,0,0,.31-.88l-12.2-25.55a177,177,0,0,1,34.9-12.21l6.42,27.55a.66.66,0,0,0,.3.41.67.67,0,0,0,.5.08l1.32-.3a.64.64,0,0,0,.41-.29.64.64,0,0,0,.09-.5L291,340.62a178.94,178.94,0,0,1,37.22-4.13l.09,28.27a.65.65,0,0,0,.2.47.66.66,0,0,0,.46.19h1.74a.7.7,0,0,0,.47-.19.68.68,0,0,0,.19-.47l.09-28.27a178.94,178.94,0,0,1,37.22,4.13l-6.17,27.6a.73.73,0,0,0,.09.5.67.67,0,0,0,.41.29l1.33.3a.65.65,0,0,0,.49-.08.66.66,0,0,0,.3-.41l6.42-27.55a177,177,0,0,1,34.9,12.21L394.29,379a.69.69,0,0,0,0,.51.6.6,0,0,0,.33.37l1.22.59h0a.84.84,0,0,0,.14.06.66.66,0,0,0,.74-.35l12.44-25.45a179.1,179.1,0,0,1,31.3,19.66l-.37.46a4.61,4.61,0,0,1,1.85,2.39l.81-1a178.15,178.15,0,0,1,26.18,26.1l-22.13,17.84a.66.66,0,0,0-.1.93l.84,1.06a.68.68,0,0,0,.93.11l22.3-17.65a179.11,179.11,0,0,1,19.77,31.28l-25.61,12.51a.65.65,0,0,0-.3.88l.59,1.22a.65.65,0,0,0,.74.36l.14-.05h0l25.73-12.27a178.2,178.2,0,0,1,12.31,34.93L476.28,480a.65.65,0,0,0-.49.79l.3,1.32a.68.68,0,0,0,.72.52l.07,0h0l27.9-6.22a179.59,179.59,0,0,1,4.2,36.78l-28.66.15a.65.65,0,0,0-.65.66v1.36h0a.75.75,0,0,0,.05.26.6.6,0,0,0,.14.21h0a.64.64,0,0,0,.19.13.52.52,0,0,0,.21,0h.05l30,.11a.64.64,0,0,0,.47-.19.66.66,0,0,0,.19-.46v-.31h.66A181.28,181.28,0,0,0,330.35,333.84Z"/><polyline class="cls-6" points="1114.67 498.67 1206.44 473.83 1207.13 476.37 1115.35 501.21"/><path class="cls-2" d="M1128,490.92a15.79,15.79,0,1,1-22-3.94A15.79,15.79,0,0,1,1128,490.92Z"/><path class="cls-6" d="M1128,490.92l1.08-.76.38.57a17.11,17.11,0,0,1-4.65,23.25c-.19.13-.37.26-.57.38a17.11,17.11,0,0,1-23.24-4.65l-.38-.57a17.1,17.1,0,0,1,4.65-23.24l.57-.38a17.11,17.11,0,0,1,23.24,4.64l-1.08.76-1.08.75a14.47,14.47,0,0,0-19.66-3.93l-.49.32a14.48,14.48,0,0,0-3.93,19.66l.32.48a14.48,14.48,0,0,0,19.66,3.94l.49-.33a14.47,14.47,0,0,0,3.93-19.66l-.32-.48Z"/><path class="cls-7" d="M1113,332.12v.26H1112v-.27A181.28,181.28,0,0,0,930.75,513.41h.66v.31a.65.65,0,0,0,.66.65l30-.11h.05a.52.52,0,0,0,.21,0,.86.86,0,0,0,.2-.13h0a.6.6,0,0,0,.14-.21.58.58,0,0,0,.05-.26h0v-1.36a.65.65,0,0,0-.65-.66l-28.66-.15a179.59,179.59,0,0,1,4.2-36.78l27.9,6.22h0l.06,0a.67.67,0,0,0,.72-.52l.3-1.32a.67.67,0,0,0-.08-.5.64.64,0,0,0-.41-.29l-27.84-6.48a178.2,178.2,0,0,1,12.31-34.93l25.73,12.27h0l.13.05a.65.65,0,0,0,.74-.36l.59-1.22a.65.65,0,0,0-.3-.88L951.87,434.2a179.11,179.11,0,0,1,19.77-31.28l22.3,17.65a.68.68,0,0,0,.93-.11c.28-.36.56-.71.85-1.06a.66.66,0,0,0-.1-.93l-22.13-17.84a178.28,178.28,0,0,1,12.22-13.55,182.25,182.25,0,0,1,13.95-12.55l2.43,3a6.56,6.56,0,0,1,1.91-2.26l-2-2.59A179,179,0,0,1,1033.25,353l12.44,25.45a.66.66,0,0,0,.74.35.84.84,0,0,0,.14-.06h0l1.22-.59a.65.65,0,0,0,.31-.88l-12.2-25.55a177,177,0,0,1,34.9-12.21l6.42,27.55a.66.66,0,0,0,.3.41.67.67,0,0,0,.5.08l1.32-.3a.64.64,0,0,0,.41-.29.64.64,0,0,0,.09-.5l-6.17-27.6a178.94,178.94,0,0,1,37.22-4.13L1111,363a.65.65,0,0,0,.2.47.66.66,0,0,0,.46.19h1.74a.7.7,0,0,0,.47-.19.68.68,0,0,0,.19-.47l.09-28.27a178.94,178.94,0,0,1,37.22,4.13l-6.17,27.6a.73.73,0,0,0,.09.5.64.64,0,0,0,.41.29l1.33.3a.65.65,0,0,0,.49-.08.66.66,0,0,0,.3-.41l6.42-27.55a177,177,0,0,1,34.9,12.21l-12.2,25.55a.75.75,0,0,0,0,.51.65.65,0,0,0,.34.37l1.22.59h0a.84.84,0,0,0,.14.06.66.66,0,0,0,.74-.35L1191.77,353a179.1,179.1,0,0,1,31.3,19.66l-17.61,22.25a.66.66,0,0,0,.11.93l1.06.84a.64.64,0,0,0,.92-.1l17.81-22.08a178.15,178.15,0,0,1,26.18,26.1l-22.14,17.84a.67.67,0,0,0-.1.93c.29.35.57.7.85,1.06a.68.68,0,0,0,.93.11l22.3-17.65a179.11,179.11,0,0,1,19.77,31.28l-25.61,12.51a.65.65,0,0,0-.3.88l.59,1.22a.65.65,0,0,0,.74.36l.13-.05h0l25.73-12.27a178.2,178.2,0,0,1,12.31,34.93l-27.84,6.48a.65.65,0,0,0-.49.79l.3,1.32a.67.67,0,0,0,.72.52l.07,0h0l27.9-6.22a179.59,179.59,0,0,1,4.2,36.78l-28.66.15a.66.66,0,0,0-.65.66v1.36h0a.75.75,0,0,0,0,.26.6.6,0,0,0,.14.21h0a.64.64,0,0,0,.19.13.52.52,0,0,0,.21,0h0l30,.11a.64.64,0,0,0,.47-.19.66.66,0,0,0,.19-.46v-.31h.66A181.28,181.28,0,0,0,1113,332.12Z"/><circle class="cls-8" cx="723.44" cy="535.9" r="324.22"/><path class="cls-9" d="M510.09,366.39,469.41,334.2a323.85,323.85,0,0,0-37.1,58.9l46.63,22.77A272.76,272.76,0,0,1,510.09,366.39Z"/><path class="cls-10" d="M661.75,270,650,219.45a321.91,321.91,0,0,0-65.72,23l22.37,46.83A270.2,270.2,0,0,1,661.75,270Z"/><path class="cls-11" d="M722.26,262.9,722,211a325.12,325.12,0,0,0-69.12,7.78l11.31,50.65A273.15,273.15,0,0,1,722.26,262.9Z"/><path class="cls-6" d="M553,323.09l-32.57-40.4a327,327,0,0,0-49.2,49.2l40.41,32.57A273.75,273.75,0,0,1,553,323.09Z"/><path class="cls-12" d="M604.4,290.39l-22.79-46.62a323.91,323.91,0,0,0-58.87,37.09l32.2,40.68A272.4,272.4,0,0,1,604.4,290.39Z"/><path class="cls-13" d="M996.11,533.7l51.89-.19a325.34,325.34,0,0,0-7.93-69.85l-50.62,11.41A272.93,272.93,0,0,1,996.11,533.7Z"/><path class="cls-14" d="M988.9,472.66l50.51-11.88a321.69,321.69,0,0,0-23.16-65.66l-46.78,22.45A270.11,270.11,0,0,1,988.9,472.66Z"/><path class="cls-15" d="M936.86,704.84l40.57,32.35a324.84,324.84,0,0,0,37.31-58.76l-46.55-22.95A272.67,272.67,0,0,1,936.86,704.84Z"/><path class="cls-16" d="M996.12,536.19a272.78,272.78,0,0,1-6.76,59.59L1040,607.26a325.1,325.1,0,0,0,8-70.81Z"/><path class="cls-17" d="M969.29,653.26,1016,675.78a322.38,322.38,0,0,0,23.26-65.64l-50.5-11.95A270.15,270.15,0,0,1,969.29,653.26Z"/><path class="cls-18" d="M458.53,473.25a270.38,270.38,0,0,1,19.33-55.15L431,395.76a321.39,321.39,0,0,0-23.61,68.32c.19-.86.39-1.72.59-2.58Z"/><path class="cls-19" d="M458,475.67l-50.66-11.3a326,326,0,0,0-7.76,69.14l51.88.27A273.32,273.32,0,0,1,458,475.67Z"/><path class="cls-20" d="M451.46,536.26l-51.88.19a325.38,325.38,0,0,0,7.66,69.15l50.67-11.22A272.68,272.68,0,0,1,451.46,536.26Z"/><path class="cls-21" d="M458.44,596.8l-50.55,11.68c-.22-1-.44-1.91-.65-2.87a321.53,321.53,0,0,0,23.57,68.63L477.68,652A270.24,270.24,0,0,1,458.44,596.8Z"/><path class="cls-22" d="M478.75,654.19l-46.67,22.7a325.23,325.23,0,0,0,37,58.94l40.74-32.12A272.25,272.25,0,0,1,478.75,654.19Z"/><path class="cls-23" d="M892.23,321.21l32.11-40.75a324.45,324.45,0,0,0-59-37l-22.69,46.67A273,273,0,0,1,892.23,321.21Z"/><path class="cls-24" d="M840.45,289.08l22.26-46.88a322.23,322.23,0,0,0-65.77-22.91l-11.66,50.56A270.51,270.51,0,0,1,840.45,289.08Z"/><path class="cls-25" d="M782.86,269.33l11.2-50.68A324.71,324.71,0,0,0,724.92,211l-.18,51.88A272.67,272.67,0,0,1,782.86,269.33Z"/><path class="cls-26" d="M968.38,415.36,1015,392.48a325.09,325.09,0,0,0-37.2-58.79L937.14,366A272.35,272.35,0,0,1,968.38,415.36Z"/><path class="cls-27" d="M935.59,364l40.34-32.65a326.29,326.29,0,0,0-49.28-49.09l-32.49,40.46A273.61,273.61,0,0,1,935.59,364Z"/><circle class="cls-2" cx="722.08" cy="535.55" r="243.51"/><circle class="cls-28" cx="722.08" cy="535.55" r="182.63"/><path class="cls-29" d="M986.87,473.13c.19.8.37,1.6.55,2.4l52.71-11.89c-.21-1-.43-1.91-.66-2.87l-52.6,12.36Z"/><path class="cls-29" d="M966.52,416.27c.35.74.71,1.47,1.06,2.2l48.72-23.37c-.42-.89-.85-1.77-1.28-2.65l-48.5,23.82Z"/><path class="cls-29" d="M934,365.35l1.54,1.92,42.3-33.62-1.84-2.3-42,34Z"/><path class="cls-29" d="M890.92,322.86l1.93,1.53,33.83-42.13-2.31-1.84-33.45,42.44Z"/><path class="cls-29" d="M839.55,291c.75.35,1.49.7,2.22,1.06l23.62-48.6-2.66-1.28L839.55,291Z"/><path class="cls-29" d="M782.41,271.38c.8.17,1.6.35,2.39.54l12.14-52.66-2.87-.65-11.66,52.77Z"/><path class="cls-29" d="M722.39,265h2.46l.18-54h-2.95Z"/><path class="cls-29" d="M662.23,272.06l2.39-.55-11.78-52.74-2.87.66,12.26,52.63Z"/><path class="cls-29" d="M605.33,292.3l2.2-1.06-23.28-48.76-2.65,1.27,23.73,48.55Z"/><path class="cls-29" d="M554.35,324.75l1.91-1.53-33.53-42.37-2.3,1.83,33.92,42.07Z"/><path class="cls-29" d="M511.78,367.72l1.53-1.93-42.07-33.9c-.62.76-1.23,1.53-1.84,2.3l42.38,33.53Z"/><path class="cls-29" d="M479.79,419l1.07-2.21-48.55-23.72c-.44.89-.86,1.78-1.29,2.67L479.79,419Z"/><path class="cls-29" d="M460.08,476.13c.18-.8.36-1.59.55-2.39L408,461.5c-.23.95-.44,1.91-.66,2.87l52.74,11.76Z"/><path class="cls-29" d="M453.61,536.25v-2.46l-54-.28c0,.57,0,1.14,0,1.71v1.23l54-.2Z"/><path class="cls-29" d="M994,533.71v2.46l54,.28c0-.57,0-1.14,0-1.71,0-.41,0-.82,0-1.23l-54,.2Z"/><path class="cls-29" d="M460.54,596.31c-.19-.79-.37-1.59-.54-2.39L407.24,605.6c.21,1,.43,1.92.65,2.88l52.65-12.17Z"/><path class="cls-29" d="M480.67,653.25l-1.06-2.2-48.8,23.19c.42.88.84,1.77,1.27,2.65Z"/><path class="cls-29" d="M513,704.3l-1.52-1.92-42.44,33.45,1.83,2.3L513,704.3Z"/><path class="cls-29" d="M935.22,703.54l-1.54,1.91,41.94,34.07c.62-.76,1.24-1.53,1.85-2.3l-42.25-33.68Z"/><path class="cls-29" d="M967.4,652.35c-.35.74-.71,1.47-1.08,2.21l48.47,23.9c.43-.88.87-1.77,1.29-2.66L967.4,652.35Z"/><path class="cls-29" d="M987.33,595.32c-.18.79-.37,1.59-.55,2.39l52.58,12.44c.23-1,.45-1.91.67-2.87l-52.7-12Z"/></g><circle class="cls-2" cx="849.7" cy="581.37" r="17.5"/><circle class="cls-6" cx="923.31" cy="607.29" r="14.72"/></svg>